<svg xmlns="http://www.w3.org/2000/svg" viewBox="0 0 520 100" fill="#1a6fae">
  <!-- A -->
  <polygon points="0,95 18,95 38,20 58,95 76,95 50,5 26,5"/>
  <polygon points="22,65 54,65 50,52 26,52"/>
  <!-- N -->
  <polygon points="82,5 82,95 98,95 98,35 128,95 144,95 144,5 128,5 128,65 98,5"/>
  <!-- D -->
  <path d="M152,5 L152,95 L178,95 Q210,95 220,75 Q228,60 228,50 Q228,40 220,25 Q210,5 178,5 Z M168,18 L178,18 Q198,18 206,32 Q212,42 212,50 Q212,58 206,68 Q198,82 178,82 L168,82 Z"/>
  <!-- R -->
  <path d="M236,5 L236,95 L252,95 L252,58 L268,58 L290,95 L308,95 L284,56 Q300,50 304,38 Q308,28 300,18 Q292,5 272,5 Z M252,18 L272,18 Q284,18 288,26 Q292,32 288,40 Q284,48 272,48 L252,48 Z"/>
  <!-- I -->
  <rect x="316" y="5" width="16" height="90"/>
  <!-- T -->
  <polygon points="336,5 336,18 364,18 364,95 380,95 380,18 408,18 408,5"/>
  <!-- Z with slash -->
  <polygon points="416,5 416,18 478,18 416,82 416,95 496,95 496,82 434,82 496,18 496,5"/>
  <!-- slash / accent mark -->
  <polygon points="484,5 496,5 504,18 492,18" fill="#1a6fae"/>
</svg>
